<?xml version="1.0" encoding="utf-8"?>
<!-- Generator: Adobe Illustrator 27.9.1, SVG Export Plug-In . SVG Version: 6.00 Build 0)  -->
<svg version="1.2" baseProfile="tiny" id="Layer_1" xmlns="http://www.w3.org/2000/svg" xmlns:xlink="http://www.w3.org/1999/xlink"
	 x="0px" y="0px" width="792px" height="612px" viewBox="0 0 792 612" overflow="visible" xml:space="preserve">
<g>
	<g>
		<path fill="#348017" d="M326.1,345.4l-8.1-19.7l-1.3,21.8c0,0.9-0.7,1.1-1.5,1.1c-0.6,0-1.3-0.1-1.6-0.3l1.8-26
			c0.1-1.3,0.8-2.2,2.2-2.2c0.7,0,1.1,0.1,1.5,0.2l9,22.5l7.7-21c0.4-1.3,1.1-1.7,2.2-1.7c1,0,1.4,0.2,1.9,0.4l3.1,27.7
			c-0.4,0.2-0.9,0.4-1.7,0.4c-0.9,0-1.5-0.2-1.7-1.1l-2-21.8l-7.4,19.7c-0.4,1.5-1.2,1.7-2.2,1.7
			C327.2,347.1,326.5,346.7,326.1,345.4z"/>
		<path fill="#348017" d="M344,348.2l10.5-27.5c0.5-0.3,0.9-0.5,1.9-0.5c0.9,0,1.5,0.5,1.8,1.2l10.4,26.5c-0.3,0.6-0.9,0.7-1.5,0.7
			c-0.8,0-1.5-0.3-1.8-1.3l-2.3-5.7h-13.4l-2.2,5.9c-0.3,0.8-0.8,1-1.8,1C344.8,348.7,344.3,348.5,344,348.2z M350.6,339.1h11.3
			l-5.7-14.5L350.6,339.1z"/>
		<path fill="#348017" d="M387,322.3c0.4,0.4,0.7,1.1,0.7,1.6c0,0.6-0.4,1.2-0.9,1.5c-1.3-1.1-3.8-2.2-8.2-2.2c-4.3,0-6,1.9-6,4.2
			c0,2.5,1.7,3.9,7.2,5.5c6.1,1.6,9,3.6,9,8.4c0,4.7-3.2,7.9-10,7.9c-3.7,0-6.5-0.9-8.2-1.9c-1.2-0.8-1.8-1.6-1.8-2.4
			c0-0.8,0.3-1.3,0.6-1.6c2,1.7,5.7,2.8,9.4,2.8c5.1,0,7-2,7-4.6c0-2.6-1.6-4.1-6.9-5.6c-6.8-1.9-9.3-3.8-9.3-8.5
			c0-4.3,2.8-7.5,9.1-7.5C383.4,319.8,385.8,321.1,387,322.3z"/>
		<path fill="#348017" d="M402.3,323.2v25.2c-0.3,0.2-0.9,0.3-1.8,0.3c-0.7,0-1.3-0.4-1.3-1.5v-24h-9.6c-0.2-0.4-0.4-0.9-0.4-1.5
			c0-0.7,0.4-1.5,1.7-1.5h21c0.2,0.2,0.4,0.7,0.4,1.3c0,1-0.4,1.7-1.3,1.7H402.3z"/>
		<path fill="#348017" d="M417.2,335.6v10.1h16c0.2,0.2,0.4,0.6,0.4,1.3c0,1-0.4,1.7-1.3,1.7h-16.8c-0.7,0-1.4-0.2-1.4-1.5v-26.7
			c0.3-0.2,0.7-0.3,1.5-0.3h17.7c0.2,0.2,0.4,0.6,0.4,1.3c0,1-0.4,1.7-1.3,1.7h-15.1v9.4h13.6c0.2,0.2,0.4,0.7,0.4,1.4
			c0,1-0.5,1.6-1.3,1.6H417.2z"/>
		<path fill="#348017" d="M446.8,320.2c4.5,0,8.2,2.1,8.2,7.9c0,4.5-3.1,7.2-6.6,8c2.6,3.5,4.6,9.9,7.4,9.9h1.1
			c0.2,0.2,0.3,0.6,0.3,1.1c0,1-0.7,1.7-2.4,1.7c-4.2,0-6-8.2-9.4-12.4h-5.9v12.1c-0.3,0.2-0.9,0.4-1.6,0.4c-0.9,0-1.6-0.2-1.6-1.5
			v-26.7c0.3-0.2,0.9-0.3,1.6-0.3H446.8z M439.5,322.7v11h6.2c3.4,0,6.3-1.8,6.3-5.7c0-3.9-2.3-5.4-5.8-5.4H439.5z"/>
		<path fill="#348017" d="M476.1,322.3c0.4,0.4,0.6,1.1,0.6,1.6c0,0.6-0.4,1.2-0.9,1.5c-1.3-1.1-3.8-2.2-8.2-2.2c-4.3,0-6,1.9-6,4.2
			c0,2.5,1.7,3.9,7.2,5.5c6.1,1.6,9,3.6,9,8.4c0,4.7-3.2,7.9-10,7.9c-3.7,0-6.5-0.9-8.2-1.9c-1.2-0.8-1.8-1.6-1.8-2.4
			c0-0.8,0.3-1.3,0.6-1.6c2,1.7,5.7,2.8,9.4,2.8c5.1,0,7-2,7-4.6c0-2.6-1.6-4.1-6.9-5.6c-6.8-1.9-9.3-3.8-9.3-8.5
			c0-4.3,2.9-7.5,9.1-7.5C472.4,319.8,474.9,321.1,476.1,322.3z"/>
	</g>
	<g>
		<path fill="#348017" d="M301.8,283.1h31.9c0,0,52-24.8,156.1,0.5C489.7,283.6,356.1,238.6,301.8,283.1z"/>
		<path fill="#0976B9" d="M329.9,262.5h18.9c0,0,43.2-9.5,125.5,14.6C474.3,277.1,368.6,238.2,329.9,262.5z"/>
	</g>
	<g>
		<path fill="#348017" d="M390.1,289.4v24.2h13.5c0.2,0.2,0.4,0.7,0.4,1.3c0,1-0.4,1.7-1.8,1.7h-13.8c-0.9,0-1.4-0.4-1.4-1.5v-26.7
			c0.3-0.2,0.9-0.3,1.6-0.3C389.3,288.1,390.1,288.5,390.1,289.4z"/>
		<path fill="#348017" d="M405.4,316.2l10.5-27.5c0.5-0.3,0.9-0.5,1.9-0.5c0.9,0,1.5,0.5,1.8,1.2l10.4,26.5
			c-0.3,0.6-0.9,0.7-1.5,0.7c-0.8,0-1.5-0.3-1.8-1.3l-2.3-5.7H411l-2.2,5.9c-0.3,0.8-0.8,1-1.8,1
			C406.2,316.6,405.7,316.5,405.4,316.2z M412,307h11.3l-5.7-14.5L412,307z"/>
		<path fill="#348017" d="M434.4,294.2l0.2,22.1c-0.2,0.2-1.1,0.4-1.8,0.4c-0.7,0-1.4-0.2-1.4-1.5v-26.7c0.4-0.2,1-0.3,1.7-0.3
			c0.7,0,1.1,0.3,1.5,0.8l15.3,22l-0.1-22.4c0.3-0.2,0.8-0.4,1.5-0.4c0.8,0,1.7,0.3,1.7,1.3v26.9c-0.3,0.2-0.8,0.3-1.6,0.3
			c-0.6,0-1.1-0.3-1.5-0.8L434.4,294.2z"/>
		<path fill="#348017" d="M463.7,288.1c9.7,0,14.4,4.5,14.4,14.6c0,10.3-5,13.9-13.3,13.9h-6.6c-0.9,0-1.6-0.2-1.6-1.5v-26.7
			c0.3-0.2,0.8-0.3,1.6-0.3H463.7z M459.7,291.1v22.7h4.9c6.6,0,10.2-2.9,10.2-11c0-8-3.5-11.7-11-11.7H459.7z"/>
	</g>
	<g>
		<path fill="#0976B9" d="M330.5,313c0,0.6-0.3,1-0.8,1.5c-0.7,0.7-2.7,2.5-6.9,2.5c-5.5,0-9.4-3.3-9.4-11.4
			c0-7.8,3.8-11.4,9.2-11.4c3.7,0,5.6,1.2,6.8,2.6c0.4,0.4,0.7,0.7,0.7,1.4c0,0.6-0.4,1-0.9,1.1c-1.4-1.8-3.4-2.8-6.5-2.8
			c-4.1,0-6.9,2.9-6.9,9.1c0,6.7,2.9,9.1,7,9.1c2.8,0,5-0.9,6.5-2.7C329.9,312,330.5,312.3,330.5,313z"/>
		<path fill="#0976B9" d="M334.4,306.5v7.8h12.4c0.2,0.2,0.3,0.4,0.3,1c0,0.8-0.3,1.3-1,1.3h-13.1c-0.5,0-1.1-0.2-1.1-1.2v-20.7
			c0.3-0.2,0.6-0.3,1.2-0.3h13.7c0.2,0.2,0.3,0.4,0.3,1c0,0.8-0.3,1.3-1,1.3h-11.7v7.3H345c0.2,0.2,0.3,0.5,0.3,1.1
			c0,0.8-0.3,1.2-1,1.2H334.4z"/>
		<path fill="#0976B9" d="M357.5,294.5c3.5,0,6.2,1.4,6.2,5.8c0,2.2-0.9,3.7-2.3,4.7c2.1,0.8,3.6,2.5,3.6,5.5c0,4.5-3.6,6.2-7.2,6.2
			h-7.3c-0.7,0-1.2-0.2-1.2-1.1v-20.8c0.3-0.2,0.6-0.2,1.2-0.2H357.5z M351.8,296.5v7.8h5.2c2.5-0.1,4.4-1,4.4-4
			c0-2.9-1.6-3.7-4.4-3.7H351.8z M351.8,306.3v8.3h5.4c2.9,0,5.4-0.9,5.4-4.2c0-3.1-2.3-4.1-5.6-4.1H351.8z"/>
		<path fill="#0976B9" d="M380.6,294.8c0.3-0.2,0.6-0.3,1.2-0.3c0.7,0,1.2,0.3,1.2,1v13.1c0,5.6-2.7,8.4-8.2,8.4c-5.5,0-8-2.7-8-8.4
			l0-13.9c0.3-0.2,0.7-0.3,1.3-0.3c0.7,0,1.2,0.3,1.2,1v12.8c0,4.3,1.5,6.5,5.5,6.5c4.2,0,5.7-2.2,5.7-6.4V294.8z"/>
	</g>
</g>
<g>
	<path fill="#231F20" d="M320.7,367.2c-0.5,2.1-0.9,4.1-1.4,6.2l-0.1,0.1h-0.5l-0.1-0.1l-4-11.4c-0.7,1.9-1.3,3.8-2,5.7
		c-0.7,1.9-1.3,3.8-2,5.7l-0.1,0.1h-0.5l-0.1-0.1l-1.4-6.4l-1-4.4c-0.1-0.3-0.1-0.5-0.2-0.9c-0.1-0.3-0.1-0.6-0.1-0.9
		c0-0.1,0-0.1,0.1-0.2c0.1,0,0.1,0,0.2,0c0.1,0,0.1,0,0.2,0c0.1,0,0.1,0,0.2,0l0.1,0.1l2.4,11.2c0.7-1.9,1.3-3.7,2-5.6
		c0.7-1.8,1.3-3.7,2-5.6l0.1-0.1h0.5l0.1,0.1l3.9,11.2c0.4-1.9,0.8-3.8,1.2-5.6c0.4-1.9,0.8-3.7,1.2-5.6l0.1-0.1h0.5
		c0,0,0.1,0,0.1,0.1c0,0,0,0.1,0,0.1C321.6,363.1,321.1,365.2,320.7,367.2z"/>
	<path fill="#231F20" d="M329,369.2c-1,0-2.1,0.1-3.1,0.1c-1,0-2.1,0-3.1,0c0,0.5,0.1,1,0.2,1.5c0.1,0.5,0.3,0.8,0.6,1.2
		c0.3,0.3,0.6,0.6,1,0.8c0.4,0.2,0.9,0.3,1.4,0.3c0.3,0,0.6,0,0.9-0.1c0.3-0.1,0.6-0.2,0.8-0.3c0.3-0.1,0.5-0.2,0.6-0.3
		c0.2-0.1,0.3-0.1,0.3-0.1c0,0,0.1,0,0.1,0.1c0,0.1,0,0.1,0,0.2c0,0.1,0,0.1,0,0.2c0,0.1,0,0.1,0,0.2l-0.1,0.1
		c-0.2,0.1-0.4,0.2-0.6,0.3c-0.2,0.1-0.5,0.2-0.7,0.2c-0.2,0.1-0.5,0.1-0.7,0.1c-0.2,0-0.5,0-0.7,0c-0.7,0-1.4-0.1-1.9-0.3
		c-0.5-0.2-0.9-0.5-1.2-1c-0.3-0.4-0.5-0.9-0.7-1.5c-0.1-0.6-0.2-1.2-0.2-1.9c0-0.6,0.1-1.2,0.3-1.7c0.2-0.5,0.4-0.9,0.7-1.3
		c0.3-0.4,0.7-0.6,1.2-0.8c0.5-0.2,1-0.3,1.7-0.3c0.6,0,1.1,0.1,1.6,0.3c0.4,0.2,0.7,0.5,1,0.9c0.2,0.4,0.4,0.8,0.5,1.3
		c0.1,0.5,0.2,1,0.2,1.6L329,369.2z M328.3,367.4c-0.1-0.4-0.3-0.7-0.5-1c-0.2-0.3-0.5-0.5-0.8-0.7c-0.3-0.2-0.7-0.3-1.1-0.3
		c-0.5,0-0.9,0.1-1.3,0.2c-0.4,0.2-0.7,0.4-1,0.6c-0.3,0.3-0.5,0.6-0.6,1c-0.2,0.4-0.2,0.8-0.2,1.2h0.5c0.8,0,1.7,0,2.5,0
		c0.8,0,1.7-0.1,2.5-0.1C328.4,368.1,328.4,367.8,328.3,367.4z"/>
	<path fill="#231F20" d="M341.1,371.9c-0.2,0.4-0.5,0.8-0.8,1c-0.3,0.3-0.7,0.5-1.2,0.6c-0.5,0.1-1,0.2-1.5,0.2
		c-0.4,0-0.8,0-1.2-0.1c-0.4,0-0.8-0.1-1.2-0.1l-0.2-0.1V361l0.1-0.1c0.8,0,1.6-0.1,2.4-0.1c1.2,0,2.1,0.2,2.7,0.8
		c0.6,0.5,0.9,1.4,0.9,2.6c0,0.3,0,0.6-0.1,0.9c-0.1,0.3-0.2,0.6-0.4,0.9c-0.2,0.3-0.4,0.5-0.6,0.7c-0.2,0.2-0.5,0.4-0.8,0.5
		c0.4,0.1,0.7,0.3,0.9,0.5c0.3,0.2,0.5,0.5,0.6,0.8c0.2,0.3,0.3,0.6,0.4,0.9c0.1,0.3,0.1,0.7,0.1,1
		C341.4,371,341.3,371.5,341.1,371.9z M339.7,362.1c-0.5-0.4-1.2-0.6-2.1-0.6c-0.3,0-0.6,0-0.9,0c-0.3,0-0.6,0-0.9,0v5.4h1.9
		c0.9,0,1.5-0.2,2-0.7c0.5-0.5,0.7-1.1,0.7-2h0C340.5,363.2,340.2,362.5,339.7,362.1z M339.9,368.2c-0.5-0.5-1.2-0.7-2.2-0.7
		c-0.3,0-0.6,0-1,0c-0.3,0-0.6,0-1,0v5.4c0.3,0,0.6,0,0.9,0.1c0.3,0,0.6,0,0.9,0c0.5,0,0.9,0,1.3-0.1c0.4-0.1,0.7-0.2,1-0.5
		c0.3-0.2,0.5-0.5,0.6-0.8c0.1-0.3,0.2-0.8,0.2-1.3C340.7,369.5,340.4,368.7,339.9,368.2z"/>
	<path fill="#231F20" d="M349.6,373.6h-0.4l-0.1-0.1l0-1.7c-0.3,0.6-0.7,1.1-1.3,1.4c-0.5,0.3-1.2,0.5-1.9,0.5c-0.5,0-1-0.1-1.4-0.3
		c-0.4-0.2-0.7-0.4-1-0.7c-0.2-0.3-0.4-0.7-0.5-1.1c-0.1-0.4-0.2-0.9-0.2-1.4c0-1.7,0-3.3,0.1-5l0.1-0.1h0.5c0.1,0,0.1,0.1,0.1,0.1
		l-0.1,5c0,0.4,0,0.8,0.1,1.1c0.1,0.3,0.2,0.7,0.4,0.9c0.2,0.3,0.4,0.5,0.7,0.6c0.3,0.2,0.7,0.2,1.1,0.2c0.4,0,0.8-0.1,1.2-0.2
		c0.4-0.2,0.7-0.4,1-0.7c0.3-0.3,0.5-0.6,0.7-1c0.2-0.4,0.3-0.8,0.3-1.2c0-0.8,0-1.6,0-2.4c0-0.8,0-1.6,0-2.4l0.1-0.1h0.5l0.1,0.1
		v8.3L349.6,373.6z"/>
	<path fill="#231F20" d="M352.1,363h-0.7l-0.1-0.1v-0.7l0.1-0.1h0.7l0.1,0.1v0.7L352.1,363z M352,373.6h-0.5l-0.2-0.1v-8.3l0.1-0.1
		h0.5l0.1,0.1v8.3L352,373.6z"/>
	<path fill="#231F20" d="M357.7,373.4c-0.2,0.1-0.4,0.2-0.6,0.3c-0.2,0.1-0.5,0.1-0.7,0.1c-0.6,0-1.1-0.1-1.5-0.4
		c-0.4-0.3-0.6-0.7-0.8-1.1c-0.2-0.4-0.3-0.9-0.3-1.5c0-0.5-0.1-1.1-0.1-1.6V360l0.1-0.1h0.5l0.1,0.1c0,1.5,0,3.1,0,4.6
		c0,1.5,0,3,0,4.6c0,0.3,0,0.7,0,1.2c0,0.5,0.1,0.9,0.2,1.3c0.1,0.4,0.3,0.7,0.6,1c0.3,0.3,0.6,0.4,1.1,0.4c0.2,0,0.4,0,0.6-0.1
		c0.2,0,0.3-0.1,0.4-0.2c0.1-0.1,0.2-0.1,0.2-0.2c0.1,0,0.1-0.1,0.1-0.1c0.1,0,0.1,0.1,0.1,0.3c0,0.2,0,0.3,0,0.4L357.7,373.4z"/>
	<path fill="#231F20" d="M365.8,373.6h-0.4l-0.1-0.1l0-1.6c-0.3,0.6-0.7,1-1.2,1.4c-0.5,0.3-1.1,0.5-1.8,0.5c-0.7,0-1.2-0.1-1.7-0.3
		c-0.5-0.2-0.8-0.5-1.1-0.9c-0.3-0.4-0.5-0.8-0.6-1.4c-0.1-0.5-0.2-1.1-0.2-1.7c0-1.5,0.3-2.6,1-3.4c0.7-0.7,1.8-1.1,3.3-1.1
		c0.4,0,0.7,0,1.1,0c0.4,0,0.7,0.1,1.1,0.1V360l0.1-0.1h0.5l0.1,0.1v13.4L365.8,373.6z M364.1,365.6c-0.4,0-0.8,0-1.1,0
		c-1.3,0-2.2,0.3-2.8,1c-0.6,0.7-0.9,1.6-0.9,2.8c0,0.5,0,1,0.2,1.4c0.1,0.4,0.3,0.8,0.5,1.1c0.2,0.3,0.5,0.6,0.9,0.8
		c0.4,0.2,0.8,0.3,1.4,0.3c0.5,0,0.9-0.1,1.3-0.3c0.4-0.2,0.7-0.5,0.9-0.8c0.2-0.3,0.4-0.7,0.5-1.2c0.1-0.4,0.2-0.9,0.2-1.3l0-3.6
		C364.9,365.7,364.5,365.7,364.1,365.6z"/>
	<path fill="#231F20" d="M382.8,365.8c-0.1,0.4-0.2,0.9-0.4,1.5c-0.2,0.6-0.3,1.2-0.5,1.9c-0.2,0.7-0.4,1.3-0.6,1.9
		c-0.2,0.6-0.3,1.1-0.5,1.6c-0.1,0.4-0.2,0.7-0.2,0.8l-0.1,0.1H380l-0.1-0.1l-2.7-7.2c-0.4,1.2-0.9,2.4-1.3,3.6
		c-0.4,1.2-0.8,2.4-1.3,3.6l-0.1,0.1h-0.5l-0.1-0.1l-2-8.3c0-0.1,0-0.1,0-0.1c0.1,0,0.1,0,0.2,0c0.1,0,0.2,0,0.2,0
		c0.1,0,0.1,0,0.2,0l0.1,0.1l1.7,7.2c0.4-1.2,0.8-2.4,1.3-3.6c0.4-1.2,0.9-2.4,1.3-3.6l0.1-0.1h0.3l0.1,0.1l2.7,7.3
		c0.3-1.2,0.7-2.4,1-3.6c0.3-1.2,0.7-2.4,1-3.6l0.1-0.1h0.4c0,0,0.1,0,0.1,0c0,0,0.1,0,0.1,0.1C383,365.1,382.9,365.4,382.8,365.8z"
		/>
	<path fill="#231F20" d="M385.3,363h-0.7l-0.1-0.1v-0.7l0.1-0.1h0.7l0.1,0.1v0.7L385.3,363z M385.1,373.6h-0.5l-0.2-0.1v-8.3
		l0.1-0.1h0.5l0.1,0.1v8.3L385.1,373.6z"/>
	<path fill="#231F20" d="M391.8,373.2c-0.3,0.2-0.6,0.3-0.9,0.4c-0.4,0.1-0.7,0.1-1,0.1c-0.4,0-0.8-0.1-1.1-0.2
		c-0.3-0.1-0.5-0.3-0.7-0.6c-0.2-0.2-0.3-0.5-0.3-0.8c-0.1-0.3-0.1-0.7-0.1-1.1v-5h-1.2l-0.2-0.1v-0.4l0.1-0.1h1.2
		c0-0.4,0-0.8,0-1.3c0-0.4,0-0.9,0-1.3l0.1-0.1h0.4l0.2,0.1v2.5h3.1l0.2,0.1v0.4l-0.1,0.1h-3.1v5c0,0.2,0,0.5,0.1,0.7
		c0,0.2,0.1,0.5,0.2,0.7c0.1,0.2,0.3,0.3,0.4,0.5c0.2,0.1,0.4,0.2,0.7,0.2c0.2,0,0.4,0,0.7-0.1c0.2-0.1,0.4-0.1,0.6-0.2
		c0.2-0.1,0.3-0.2,0.4-0.2c0.1-0.1,0.2-0.1,0.3-0.1c0,0,0.1,0,0.1,0.1c0,0.1,0,0.1,0,0.2c0,0.1,0,0.1,0,0.2c0,0.1,0,0.1,0,0.2
		L391.8,373.2z"/>
	<path fill="#231F20" d="M400.1,373.6h-0.5l-0.1-0.1v-5.5c0-0.4-0.1-0.7-0.2-1c-0.1-0.3-0.3-0.5-0.6-0.7c-0.2-0.2-0.5-0.3-0.8-0.4
		c-0.3-0.1-0.7-0.1-1-0.1c-0.3,0-0.6,0.1-1,0.2c-0.3,0.1-0.7,0.3-0.9,0.5c-0.3,0.2-0.5,0.4-0.7,0.7c-0.2,0.3-0.3,0.6-0.3,0.9v5.5
		l-0.1,0.1h-0.5l-0.1-0.1V360l0.1-0.1h0.5l0.1,0.1v6.4c0.3-0.5,0.8-0.9,1.3-1.1c0.5-0.2,1.1-0.4,1.6-0.4c0.5,0,1,0.1,1.4,0.2
		c0.4,0.1,0.8,0.3,1.1,0.5c0.3,0.2,0.5,0.6,0.7,0.9c0.2,0.4,0.2,0.8,0.2,1.4v5.5L400.1,373.6z"/>
	<path fill="#231F20" d="M413.3,361.5c-0.2,0.3-0.3,0.8-0.6,1.3c-0.2,0.5-0.5,1.1-0.8,1.6c-0.3,0.6-0.5,1.1-0.8,1.7
		c-0.2,0.5-0.5,1-0.7,1.4c-0.2,0.4-0.3,0.6-0.4,0.7v5.3l-0.1,0.1h-0.5l-0.1-0.1v-5.3c-0.1-0.1-0.2-0.4-0.4-0.8
		c-0.2-0.4-0.4-0.9-0.6-1.4c-0.2-0.5-0.5-1.1-0.8-1.7c-0.3-0.6-0.5-1.1-0.7-1.6c-0.2-0.5-0.4-0.9-0.6-1.2c-0.1-0.3-0.2-0.5-0.2-0.6
		c0,0,0-0.1,0.1-0.1c0.1,0,0.1,0,0.2,0c0.1,0,0.2,0,0.2,0c0.1,0,0.1,0,0.1,0l0.1,0.1l2.9,6.5c0.5-1.1,1-2.2,1.5-3.2
		c0.5-1.1,1-2.1,1.5-3.2l0.1-0.1h0.5c0,0,0.1,0,0.1,0c0,0,0.1,0,0.1,0.1C413.5,361,413.4,361.1,413.3,361.5z"/>
	<path fill="#231F20" d="M419.8,371c-0.2,0.5-0.4,1-0.7,1.4c-0.3,0.4-0.7,0.7-1.2,0.9c-0.5,0.2-1.1,0.3-1.8,0.3
		c-0.7,0-1.3-0.1-1.8-0.3c-0.5-0.2-0.9-0.5-1.3-0.9c-0.3-0.4-0.6-0.9-0.7-1.4c-0.2-0.5-0.2-1.1-0.2-1.8c0-0.7,0.1-1.3,0.2-1.8
		c0.2-0.5,0.4-1,0.7-1.4c0.3-0.4,0.7-0.7,1.2-0.9c0.5-0.2,1.1-0.3,1.8-0.3c0.7,0,1.3,0.1,1.8,0.3c0.5,0.2,0.9,0.5,1.2,0.9
		c0.3,0.4,0.6,0.8,0.7,1.4c0.2,0.5,0.2,1.1,0.2,1.8C420.1,369.9,420,370.5,419.8,371z M419.2,367.8c-0.1-0.5-0.3-0.8-0.6-1.2
		c-0.3-0.3-0.6-0.6-1-0.8c-0.4-0.2-0.9-0.3-1.5-0.3c-0.6,0-1.1,0.1-1.5,0.3c-0.4,0.2-0.8,0.4-1,0.8c-0.3,0.3-0.5,0.7-0.6,1.2
		c-0.1,0.5-0.2,1-0.2,1.5c0,0.5,0.1,1,0.2,1.4c0.1,0.5,0.3,0.9,0.6,1.2c0.3,0.3,0.6,0.6,1,0.8c0.4,0.2,0.9,0.3,1.4,0.3
		c0.6,0,1-0.1,1.4-0.3c0.4-0.2,0.7-0.5,1-0.8c0.3-0.3,0.5-0.7,0.6-1.2c0.1-0.5,0.2-0.9,0.2-1.4h0
		C419.3,368.7,419.3,368.2,419.2,367.8z"/>
	<path fill="#231F20" d="M428.3,373.6h-0.4l-0.1-0.1l0-1.7c-0.3,0.6-0.7,1.1-1.3,1.4c-0.5,0.3-1.2,0.5-1.9,0.5c-0.5,0-1-0.1-1.4-0.3
		c-0.4-0.2-0.7-0.4-1-0.7c-0.2-0.3-0.4-0.7-0.5-1.1c-0.1-0.4-0.2-0.9-0.2-1.4c0-1.7,0-3.3,0.1-5l0.1-0.1h0.5c0.1,0,0.1,0.1,0.1,0.1
		l-0.1,5c0,0.4,0,0.8,0.1,1.1c0.1,0.3,0.2,0.7,0.4,0.9c0.2,0.3,0.4,0.5,0.7,0.6c0.3,0.2,0.7,0.2,1.1,0.2c0.4,0,0.8-0.1,1.2-0.2
		c0.4-0.2,0.7-0.4,1-0.7c0.3-0.3,0.5-0.6,0.7-1c0.2-0.4,0.3-0.8,0.3-1.2c0-0.8,0-1.6,0-2.4c0-0.8,0-1.6,0-2.4l0.1-0.1h0.5l0.1,0.1
		v8.3L428.3,373.6z"/>
	<path fill="#231F20" d="M435.2,363h-0.7l-0.1-0.1v-0.7l0.1-0.1h0.7l0.1,0.1v0.7L435.2,363z M435,373.6h-0.5l-0.2-0.1v-8.3l0.1-0.1
		h0.5l0.1,0.1v8.3L435,373.6z"/>
	<path fill="#231F20" d="M443.6,373.6h-0.5l-0.1-0.1v-5.5c0-0.4-0.1-0.7-0.2-1c-0.1-0.3-0.3-0.5-0.6-0.7c-0.2-0.2-0.5-0.3-0.8-0.4
		c-0.3-0.1-0.7-0.1-1-0.1c-0.3,0-0.6,0.1-0.9,0.2c-0.3,0.1-0.7,0.3-1,0.5c-0.3,0.2-0.6,0.4-0.8,0.7c-0.2,0.3-0.3,0.6-0.3,0.9v5.7
		l-0.1,0.1h-0.5l-0.1-0.1v-8.3l0.1-0.1h0.4l0.1,0.1l0.1,1.3c0.3-0.5,0.7-0.9,1.3-1.1c0.5-0.3,1.1-0.4,1.7-0.4c0.5,0,0.9,0.1,1.4,0.2
		c0.4,0.1,0.8,0.3,1.1,0.5c0.3,0.2,0.5,0.6,0.7,0.9c0.2,0.4,0.3,0.8,0.3,1.4v5.5L443.6,373.6z"/>
	<path fill="#231F20" d="M462.5,373.6H462l-0.2-0.1l0.1-11.1c-0.9,1.9-1.9,3.7-2.8,5.6c-0.9,1.8-1.9,3.7-2.8,5.6l-0.1,0.1h-0.4
		l-0.1-0.1c-0.9-1.8-1.8-3.7-2.7-5.5c-0.9-1.8-1.8-3.7-2.6-5.5c0,1.8,0,3.7,0,5.5c0,1.8,0,3.7,0,5.5l-0.1,0.1h-0.5l-0.2-0.1V361
		l0.1-0.1h0.6l0.1,0.1l5.5,11.7l5.8-11.7l0.1-0.1h0.6l0.2,0.1v12.5L462.5,373.6z"/>
	<path fill="#231F20" d="M464.9,363h-0.7l-0.1-0.1v-0.7l0.1-0.1h0.7l0.1,0.1v0.7L464.9,363z M464.8,373.6h-0.5l-0.2-0.1v-8.3
		l0.1-0.1h0.5l0.1,0.1v8.3L464.8,373.6z"/>
	<path fill="#231F20" d="M473.4,373.6H473l-0.1-0.1v-5.5c0-0.4-0.1-0.7-0.2-1c-0.1-0.3-0.3-0.5-0.6-0.7c-0.2-0.2-0.5-0.3-0.8-0.4
		c-0.3-0.1-0.7-0.1-1-0.1c-0.3,0-0.6,0.1-0.9,0.2c-0.3,0.1-0.7,0.3-1,0.5c-0.3,0.2-0.6,0.4-0.8,0.7c-0.2,0.3-0.3,0.6-0.3,0.9v5.7
		l-0.1,0.1h-0.5l-0.1-0.1v-8.3l0.1-0.1h0.4l0.1,0.1l0.1,1.3c0.3-0.5,0.7-0.9,1.3-1.1c0.5-0.3,1.1-0.4,1.7-0.4c0.5,0,0.9,0.1,1.4,0.2
		c0.4,0.1,0.8,0.3,1.1,0.5c0.3,0.2,0.5,0.6,0.7,0.9c0.2,0.4,0.3,0.8,0.3,1.4v5.5L473.4,373.6z"/>
	<path fill="#231F20" d="M482.3,373.6h-0.4l-0.1-0.1l0-1.6c-0.3,0.6-0.7,1-1.2,1.4c-0.5,0.3-1.1,0.5-1.8,0.5c-0.7,0-1.2-0.1-1.7-0.3
		c-0.5-0.2-0.8-0.5-1.1-0.9c-0.3-0.4-0.5-0.8-0.6-1.4c-0.1-0.5-0.2-1.1-0.2-1.7c0-1.5,0.3-2.6,1-3.4c0.7-0.7,1.8-1.1,3.3-1.1
		c0.4,0,0.7,0,1.1,0c0.4,0,0.7,0.1,1.1,0.1V360l0.1-0.1h0.5l0.1,0.1v13.4L482.3,373.6z M480.5,365.6c-0.4,0-0.8,0-1.1,0
		c-1.3,0-2.2,0.3-2.8,1c-0.6,0.7-0.9,1.6-0.9,2.8c0,0.5,0,1,0.2,1.4c0.1,0.4,0.3,0.8,0.5,1.1c0.2,0.3,0.5,0.6,0.9,0.8
		c0.4,0.2,0.8,0.3,1.4,0.3c0.5,0,0.9-0.1,1.3-0.3c0.4-0.2,0.7-0.5,0.9-0.8c0.2-0.3,0.4-0.7,0.5-1.2c0.1-0.4,0.2-0.9,0.2-1.3l0-3.6
		C481.3,365.7,481,365.7,480.5,365.6z"/>
</g>
</svg>
