<?xml version="1.0" encoding="UTF-8"?><svg id="Layer_1" xmlns="http://www.w3.org/2000/svg" width="367.05" height="111.09" viewBox="0 0 367.05 111.09"><defs><style>.cls-1{fill:#348017;}.cls-1,.cls-2,.cls-3{stroke-width:0px;}.cls-2{fill:#231f20;}.cls-3{fill:#0976b9;}</style></defs><path class="cls-3" d="m19.4,68.49c0,.65-.29,1.19-.94,1.66-.76.76-3.03,2.84-7.81,2.84-6.26,0-10.66-3.78-10.66-12.96s4.28-12.96,10.48-12.96c4.25,0,6.37,1.33,7.74,2.99.5.43.79.83.79,1.55,0,.68-.5,1.12-1.04,1.3-1.62-2.05-3.85-3.17-7.38-3.17-4.64,0-7.81,3.28-7.81,10.33,0,7.6,3.28,10.33,7.99,10.33,3.13,0,5.72-1.05,7.42-3.06.51-.04,1.22.29,1.22,1.15Z"/><path class="cls-3" d="m24.4,61.04v8.93h14.15c.18.18.32.5.32,1.15,0,.9-.36,1.51-1.15,1.51h-14.87c-.61,0-1.26-.18-1.26-1.33v-23.58c.29-.18.65-.29,1.33-.29h15.62c.18.18.32.5.32,1.15,0,.9-.36,1.51-1.15,1.51h-13.32v8.28h12.02c.18.18.33.61.33,1.26,0,.9-.4,1.4-1.12,1.4h-11.23Z"/><path class="cls-3" d="m50.69,47.43c3.96,0,7.09,1.58,7.09,6.62,0,2.52-1.08,4.21-2.59,5.29,2.38.94,4.11,2.88,4.11,6.26,0,5.11-4.14,7.02-8.14,7.02h-8.35c-.76,0-1.41-.18-1.41-1.3v-23.65c.29-.18.72-.25,1.41-.25h7.88Zm-6.52,2.3v8.82h5.94c2.8-.07,5-1.12,5-4.57,0-3.27-1.87-4.25-4.97-4.25h-5.98Zm0,11.09v9.47h6.16c3.28,0,6.16-.97,6.16-4.83,0-3.53-2.66-4.64-6.41-4.64h-5.91Z"/><path class="cls-3" d="m76.88,47.72c.29-.18.72-.29,1.4-.29.79,0,1.4.29,1.4,1.12v14.94c0,6.34-3.06,9.5-9.29,9.5s-9.07-3.06-9.07-9.5l-.04-15.77c.29-.18.83-.29,1.44-.29.83,0,1.37.29,1.37,1.12v14.54c0,4.86,1.73,7.35,6.3,7.35s6.48-2.45,6.48-7.31v-15.41Z"/><path class="cls-1" d="m86.7,48.75v26.82h14.91c.18.22.41.76.41,1.44,0,1.13-.5,1.89-2.03,1.89h-15.23c-.95,0-1.58-.41-1.58-1.62v-29.6c.36-.18,1.04-.32,1.8-.32.81,0,1.71.36,1.71,1.39Z"/><path class="cls-1" d="m103.64,78.4l11.63-30.46c.54-.32.99-.59,2.07-.59s1.67.54,1.98,1.35l11.54,29.38c-.31.68-1.04.81-1.71.81-.9,0-1.67-.36-1.98-1.4l-2.52-6.26h-14.83l-2.48,6.53c-.32.86-.9,1.13-1.98,1.13-.86,0-1.4-.18-1.71-.5Zm7.3-10.14h12.53l-6.35-16.09-6.17,16.09Z"/><path class="cls-1" d="m135.71,54.07l.18,24.42c-.27.22-1.17.41-1.98.41-.72,0-1.53-.18-1.53-1.62v-29.56c.45-.23,1.08-.36,1.85-.36s1.26.36,1.62.86l16.9,24.38-.09-24.78c.36-.27.86-.45,1.67-.45.9,0,1.85.36,1.85,1.39v29.83c-.32.18-.9.32-1.8.32-.68,0-1.22-.32-1.67-.9l-16.99-23.93Z"/><path class="cls-1" d="m168.14,47.36c10.72,0,15.91,5,15.91,16.13s-5.59,15.41-14.69,15.41h-7.34c-.95,0-1.76-.23-1.76-1.62v-29.56c.36-.23.9-.36,1.76-.36h6.13Zm-4.37,3.29v25.1h5.45c7.34,0,11.31-3.24,11.31-12.17s-3.87-12.93-12.17-12.93h-4.6Z"/><path class="cls-1" d="m199.04,75.29l-8.92-21.81-1.49,24.15c-.05.95-.72,1.26-1.71,1.26-.68,0-1.4-.14-1.76-.32l2.03-28.79c.13-1.49.86-2.43,2.43-2.43.81,0,1.22.09,1.71.27l10,24.87,8.56-23.25c.41-1.4,1.22-1.89,2.39-1.89,1.08,0,1.53.18,2.12.45l3.42,30.64c-.41.27-1.03.45-1.85.45-.94,0-1.71-.23-1.85-1.26l-2.16-24.15-8.24,21.81c-.45,1.71-1.35,1.89-2.39,1.89s-1.85-.5-2.3-1.89Z"/><path class="cls-1" d="m218.85,78.4l11.62-30.46c.54-.32.99-.59,2.07-.59s1.67.54,1.98,1.35l11.54,29.38c-.32.68-1.04.81-1.71.81-.9,0-1.67-.36-1.98-1.4l-2.52-6.26h-14.82l-2.48,6.53c-.31.86-.9,1.13-1.98,1.13-.85,0-1.39-.18-1.71-.5Zm7.3-10.14h12.53l-6.35-16.09-6.17,16.09Z"/><path class="cls-1" d="m266.45,49.66c.49.5.72,1.17.72,1.76,0,.67-.5,1.3-.99,1.67-1.4-1.17-4.23-2.48-9.06-2.48s-6.67,2.07-6.67,4.68c0,2.79,1.94,4.33,8.02,6.08,6.76,1.8,9.91,4.01,9.96,9.28.05,5.23-3.51,8.7-11.04,8.7-4.1,0-7.21-.95-9.1-2.12-1.35-.86-2.03-1.75-2.03-2.66,0-.86.32-1.44.63-1.8,2.25,1.94,6.31,3.11,10.36,3.11,5.68,0,7.75-2.25,7.75-5.09s-1.76-4.51-7.66-6.17c-7.57-2.07-10.32-4.23-10.32-9.37,0-4.73,3.15-8.34,10.09-8.34,5.27,0,8.02,1.49,9.33,2.75Z"/><path class="cls-1" d="m283.34,50.69v27.85c-.36.27-1.04.36-1.94.36-.81,0-1.49-.41-1.49-1.62v-26.58h-10.63c-.23-.45-.41-.99-.41-1.71,0-.81.45-1.62,1.85-1.62h23.25c.23.27.41.77.41,1.44,0,1.13-.5,1.89-1.49,1.89h-9.55Z"/><path class="cls-1" d="m299.86,64.39v11.18h17.71c.23.22.41.63.41,1.44,0,1.13-.45,1.89-1.44,1.89h-18.61c-.77,0-1.58-.23-1.58-1.67v-29.51c.36-.23.81-.36,1.67-.36h19.55c.23.23.41.63.41,1.44,0,1.13-.45,1.89-1.44,1.89h-16.68v10.36h15.05c.22.23.41.77.41,1.58,0,1.13-.5,1.76-1.4,1.76h-14.06Z"/><path class="cls-1" d="m332.62,47.36c4.96,0,9.06,2.3,9.06,8.7,0,5-3.47,7.98-7.34,8.83,2.93,3.83,5.09,10.9,8.25,10.9h1.26c.18.22.32.63.32,1.17,0,1.12-.77,1.94-2.7,1.94-4.64,0-6.67-9.1-10.46-13.74h-6.49v13.34c-.31.27-1.03.41-1.76.41-.95,0-1.76-.23-1.76-1.62v-29.6c.36-.23.99-.32,1.76-.32h9.87Zm-8.11,2.79v12.21h6.85c3.78,0,6.99-1.94,6.99-6.26s-2.52-5.95-6.4-5.95h-7.44Z"/><path class="cls-1" d="m365.07,49.66c.49.5.72,1.17.72,1.76,0,.67-.5,1.3-.99,1.67-1.4-1.17-4.24-2.48-9.06-2.48s-6.67,2.07-6.67,4.68c0,2.79,1.94,4.33,8.02,6.08,6.76,1.8,9.91,4.01,9.96,9.28.05,5.23-3.51,8.7-11.04,8.7-4.1,0-7.21-.95-9.1-2.12-1.35-.86-2.03-1.75-2.03-2.66,0-.86.32-1.44.63-1.8,2.25,1.94,6.31,3.11,10.36,3.11,5.68,0,7.75-2.25,7.75-5.09s-1.76-4.51-7.66-6.17c-7.57-2.07-10.32-4.23-10.32-9.37,0-4.73,3.15-8.34,10.09-8.34,5.27,0,8.02,1.49,9.33,2.75Z"/><path class="cls-1" d="m78.28,41.11h45.8s74.77-35.7,224.3.68c0,0-191.97-64.66-270.11-.68Z"/><path class="cls-3" d="m118.7,11.47h27.17s62.08-13.58,180.41,21c0,0-151.89-55.91-207.58-21Z"/><path class="cls-2" d="m85.62,102.63c-.6,2.7-1.19,5.43-1.78,8.18l-.19.14h-.66l-.19-.12-5.27-14.95c-.85,2.5-1.72,4.99-2.61,7.47-.89,2.48-1.76,4.97-2.61,7.47l-.19.12h-.66l-.19-.14-1.83-8.35-1.26-5.74c-.08-.33-.18-.72-.31-1.15-.13-.44-.19-.81-.19-1.13,0-.09.04-.16.11-.2.07-.04.15-.06.25-.06s.19,0,.28.01c.09,0,.17.01.24.01l.17.14,3.18,14.73c.87-2.45,1.74-4.89,2.6-7.32.86-2.43,1.72-4.87,2.57-7.32l.19-.12h.66l.17.12,5.17,14.64c.51-2.47,1.02-4.92,1.54-7.37.52-2.44,1.04-4.9,1.57-7.36l.17-.14h.69c.06,0,.12.03.15.08.04.06.05.11.04.15-.6,2.75-1.2,5.48-1.8,8.19Z"/><path class="cls-2" d="m96.63,105.17c-1.36.05-2.71.09-4.06.13-1.34.04-2.7.06-4.06.06,0,.7.08,1.34.24,1.93.16.59.4,1.11.74,1.54.33.44.76.78,1.28,1.03.52.25,1.15.38,1.9.38.43,0,.84-.06,1.25-.17.4-.11.77-.23,1.1-.37.33-.13.61-.26.82-.37.21-.11.34-.17.37-.17.06,0,.11.04.13.12.02.08.04.17.05.26,0,.09,0,.19,0,.28,0,.09-.01.17-.01.21l-.09.16c-.24.14-.51.27-.82.38-.31.11-.62.2-.94.27-.32.07-.63.13-.95.17-.32.04-.62.06-.9.06-.98,0-1.8-.15-2.46-.45-.66-.3-1.18-.72-1.58-1.26-.4-.54-.68-1.18-.85-1.93-.17-.75-.26-1.58-.26-2.5,0-.79.11-1.52.33-2.18.22-.66.55-1.23.97-1.71.43-.47.96-.85,1.59-1.12.63-.27,1.36-.4,2.18-.4s1.51.15,2.05.45c.55.3.98.7,1.29,1.21.32.51.54,1.08.68,1.73.13.65.2,1.33.2,2.04l-.19.19Zm-1.03-2.29c-.13-.47-.33-.89-.59-1.26-.26-.37-.59-.67-1-.89-.4-.22-.87-.33-1.41-.33-.6,0-1.15.1-1.65.31-.5.21-.92.49-1.28.84-.36.36-.63.79-.83,1.3-.2.5-.3,1.05-.32,1.63h.69c1.11,0,2.21-.01,3.31-.03,1.1-.02,2.2-.08,3.31-.15-.02-.48-.09-.95-.23-1.41Z"/><path class="cls-2" d="m112.48,108.74c-.25.54-.6,1-1.04,1.35-.44.36-.97.61-1.58.77-.61.16-1.28.24-2,.24-.54,0-1.07-.02-1.59-.07-.52-.05-1.04-.07-1.56-.07l-.21-.19v-16.37l.19-.19c1.06-.05,2.11-.07,3.15-.07,1.55,0,2.74.33,3.57.98.83.66,1.25,1.79,1.25,3.4,0,.41-.06.82-.17,1.22-.11.4-.27.78-.47,1.14-.21.36-.47.67-.78.95-.32.28-.67.49-1.07.65.47.14.88.36,1.22.65.34.29.62.63.84,1.01.22.38.38.79.49,1.23.1.44.15.89.15,1.35,0,.79-.13,1.46-.38,2.01Zm-1.85-12.91c-.68-.56-1.61-.84-2.78-.84-.4,0-.79,0-1.19.02-.39.02-.79.03-1.19.05v7.05h2.49c1.14,0,2.03-.31,2.68-.93.65-.62.97-1.5.97-2.66h.02c0-1.23-.34-2.13-1.02-2.69Zm.19,8.11c-.69-.66-1.64-.98-2.82-.98-.41,0-.83,0-1.26.01-.43,0-.85.01-1.26.01v7.14c.39.03.79.06,1.17.08.39.02.78.04,1.17.04.62,0,1.17-.06,1.66-.18.49-.12.91-.32,1.27-.59.36-.28.63-.64.82-1.09.19-.45.29-1,.29-1.65,0-1.2-.35-2.13-1.04-2.79Z"/><path class="cls-2" d="m123.65,110.95h-.55l-.19-.19-.02-2.18c-.41.81-.97,1.43-1.66,1.86-.7.44-1.51.65-2.44.65-.71,0-1.33-.12-1.84-.35-.51-.24-.93-.56-1.26-.98-.33-.42-.56-.92-.71-1.48-.15-.57-.23-1.18-.23-1.83,0-2.18.02-4.37.07-6.55l.19-.19h.62c.08.01.14.08.17.19l-.07,6.55c0,.51.05.99.15,1.44.1.45.28.85.52,1.21.25.35.56.64.95.84.39.21.87.31,1.44.31.54,0,1.06-.11,1.55-.32.5-.21.93-.5,1.29-.87.36-.36.66-.79.88-1.28.22-.49.33-1.01.33-1.57,0-1.06,0-2.11.01-3.15,0-1.04.01-2.1.01-3.16l.17-.19h.62l.19.19v10.87l-.19.19Z"/><path class="cls-2" d="m126.88,97h-.95l-.19-.17v-.92l.17-.19h.95l.19.19v.92l-.17.17Zm-.17,13.95h-.62l-.21-.19v-10.87l.19-.19h.62l.19.19v10.87l-.17.19Z"/><path class="cls-2" d="m134.23,110.65c-.24.16-.52.27-.84.34-.32.07-.63.11-.91.11-.84,0-1.49-.19-1.97-.57-.47-.38-.83-.86-1.06-1.45-.23-.59-.37-1.23-.43-1.94-.06-.71-.08-1.39-.08-2.04v-11.98l.17-.19h.62l.19.19c0,2.01,0,4.01-.01,5.99,0,1.98-.01,3.98-.01,5.99,0,.46.02.98.05,1.58.03.59.13,1.15.28,1.68.16.53.41.97.76,1.34.35.36.85.55,1.49.55.28,0,.53-.03.72-.1.2-.06.36-.14.49-.22.13-.09.23-.16.31-.23.08-.06.13-.09.17-.09.13.05.18.17.18.38,0,.21-.01.37-.01.5l-.09.17Z"/><path class="cls-2" d="m144.88,110.95h-.55l-.19-.19-.05-2.16c-.38.76-.91,1.36-1.59,1.81-.68.45-1.45.68-2.3.68s-1.61-.14-2.22-.41c-.61-.28-1.11-.66-1.49-1.16-.39-.5-.67-1.09-.84-1.78-.17-.69-.26-1.44-.26-2.24,0-1.98.46-3.46,1.38-4.44.92-.98,2.37-1.47,4.37-1.47.49,0,.98.02,1.47.05.49.03.98.07,1.47.12v-6.64l.19-.19h.62l.17.19v17.65l-.17.19Zm-2.27-10.45c-.56-.04-1.06-.06-1.48-.06-1.66,0-2.87.44-3.63,1.32-.76.88-1.14,2.12-1.14,3.74,0,.65.07,1.26.2,1.83.13.57.36,1.07.66,1.51.31.44.71.78,1.2,1.03.49.25,1.09.38,1.8.38.66,0,1.24-.14,1.72-.41.48-.28.88-.64,1.19-1.08.31-.44.54-.95.69-1.52.15-.57.22-1.15.22-1.73l.02-4.74c-.41-.13-.9-.21-1.46-.25Z"/><path class="cls-2" d="m167.18,100.67c-.14.51-.32,1.15-.53,1.91-.21.76-.45,1.59-.71,2.49-.26.9-.51,1.75-.74,2.55-.23.8-.43,1.49-.59,2.08-.17.59-.27.96-.32,1.11l-.19.14h-.59l-.19-.12-3.53-9.47c-.57,1.58-1.13,3.16-1.68,4.73-.55,1.57-1.11,3.15-1.66,4.73l-.19.12h-.71l-.17-.14-2.63-10.86c-.03-.09-.01-.16.06-.19.07-.03.16-.05.26-.06.1,0,.2,0,.31,0,.1,0,.18.01.23.01l.19.14,2.25,9.42c.55-1.58,1.11-3.16,1.68-4.72.57-1.57,1.13-3.14,1.68-4.72l.17-.12h.43l.17.12,3.58,9.54c.46-1.6.92-3.18,1.38-4.76.46-1.57.92-3.16,1.38-4.76l.19-.14h.52s.07.01.12.03c.05.02.07.05.07.08,0,.05-.07.33-.21.84Z"/><path class="cls-2" d="m170.43,97h-.95l-.19-.17v-.92l.17-.19h.95l.19.19v.92l-.17.17Zm-.16,13.95h-.62l-.21-.19v-10.87l.19-.19h.62l.19.19v10.87l-.16.19Z"/><path class="cls-2" d="m178.95,110.43c-.35.22-.76.39-1.24.5-.48.11-.92.17-1.32.17-.57,0-1.04-.09-1.41-.26-.37-.17-.66-.42-.88-.72-.21-.31-.36-.68-.45-1.12-.09-.43-.13-.91-.13-1.43v-6.59h-1.64l-.21-.19v-.52l.19-.19h1.64c.03-.55.05-1.11.06-1.67,0-.56.02-1.12.03-1.67l.19-.19h.47l.21.19v3.34h4.01l.21.19v.52l-.19.19h-4.03v6.59c0,.32.03.64.08.96.06.32.15.61.3.87.14.25.34.46.58.62.25.16.56.24.94.24.3,0,.59-.04.87-.13.28-.09.53-.18.75-.28.22-.1.41-.2.57-.29.16-.09.27-.13.33-.13s.11.04.13.12c.02.08.04.16.05.26,0,.1,0,.19,0,.28,0,.1-.01.17-.01.22l-.1.14Z"/><path class="cls-2" d="m189.88,110.95h-.62l-.19-.19v-7.24c0-.52-.09-.97-.26-1.35-.17-.38-.42-.7-.72-.96-.31-.26-.67-.45-1.09-.58-.42-.13-.88-.19-1.36-.19-.39,0-.82.07-1.27.21-.45.14-.86.35-1.24.62-.38.27-.7.59-.95.96-.25.37-.38.79-.38,1.25v7.28l-.19.19h-.62l-.19-.19v-17.65l.19-.19h.62l.19.19v8.37c.44-.65,1-1.13,1.68-1.44.68-.31,1.4-.46,2.16-.46.66,0,1.27.07,1.8.22.54.15,1,.39,1.4.7.4.32.7.72.91,1.22.21.5.32,1.1.32,1.79v7.24l-.19.19Z"/><path class="cls-2" d="m207.19,95.06c-.2.44-.45,1-.76,1.66-.31.66-.64,1.38-1.01,2.14-.36.77-.71,1.5-1.03,2.18-.32.69-.61,1.29-.86,1.8-.24.51-.4.83-.46.96v6.95l-.19.19h-.69l-.17-.19v-6.9c-.08-.16-.24-.5-.47-1.02-.24-.52-.51-1.13-.83-1.83-.32-.7-.65-1.43-1.01-2.19-.36-.77-.68-1.47-.97-2.12-.29-.65-.53-1.19-.72-1.64-.19-.44-.29-.69-.29-.74s.04-.08.12-.1c.08-.02.17-.03.27-.04.1,0,.2,0,.3,0,.1,0,.16.01.19.01l.17.12,3.8,8.47c.66-1.42,1.32-2.84,1.97-4.24.65-1.4,1.31-2.81,1.97-4.23l.17-.12h.62s.07.01.12.04c.05.02.07.05.07.08,0,.05-.1.29-.3.74Z"/><path class="cls-2" d="m215.8,107.61c-.21.71-.53,1.33-.96,1.84-.43.51-.97.92-1.63,1.21-.66.29-1.43.44-2.31.44s-1.66-.15-2.33-.44c-.67-.29-1.22-.7-1.66-1.21-.44-.51-.77-1.13-.98-1.84-.21-.71-.32-1.49-.32-2.32,0-.89.1-1.68.3-2.38.2-.7.51-1.31.94-1.8.43-.5.97-.88,1.64-1.15.66-.27,1.46-.4,2.4-.4s1.73.13,2.4.4c.67.27,1.2.65,1.62,1.15.42.5.73,1.1.92,1.81.2.71.3,1.5.3,2.37s-.11,1.61-.32,2.32Zm-.89-4.26c-.16-.59-.41-1.11-.75-1.55-.34-.44-.78-.79-1.32-1.03-.54-.25-1.19-.37-1.94-.37s-1.41.12-1.96.37c-.54.24-.99.59-1.34,1.02-.35.44-.6.95-.77,1.55-.17.6-.25,1.25-.25,1.95s.09,1.3.26,1.9c.17.6.44,1.13.8,1.58.36.45.8.81,1.34,1.08.54.27,1.17.4,1.9.4s1.36-.14,1.9-.4c.54-.27.98-.63,1.33-1.08.35-.45.6-.98.77-1.58.16-.6.25-1.23.25-1.9h.02c0-.7-.08-1.34-.24-1.93Z"/><path class="cls-2" d="m226.91,110.95h-.55l-.19-.19-.02-2.18c-.41.81-.97,1.43-1.66,1.86-.69.44-1.51.65-2.44.65-.71,0-1.33-.12-1.84-.35-.51-.24-.93-.56-1.26-.98-.33-.42-.56-.92-.71-1.48-.15-.57-.23-1.18-.23-1.83,0-2.18.02-4.37.07-6.55l.19-.19h.62c.08.01.14.08.17.19l-.07,6.55c0,.51.05.99.15,1.44.1.45.28.85.52,1.21.24.35.56.64.95.84.39.21.86.31,1.44.31.54,0,1.06-.11,1.55-.32.5-.21.93-.5,1.29-.87.36-.36.66-.79.88-1.28.22-.49.33-1.01.33-1.57,0-1.06,0-2.11.01-3.15,0-1.04.01-2.1.01-3.16l.17-.19h.62l.19.19v10.87l-.19.19Z"/><path class="cls-2" d="m235.9,97h-.95l-.19-.17v-.92l.17-.19h.95l.19.19v.92l-.17.17Zm-.16,13.95h-.62l-.21-.19v-10.87l.19-.19h.62l.19.19v10.87l-.16.19Z"/><path class="cls-2" d="m247.05,110.95h-.62l-.19-.19v-7.24c0-.52-.09-.97-.26-1.35-.17-.38-.42-.7-.72-.96-.31-.26-.67-.45-1.09-.58-.42-.13-.87-.19-1.36-.19-.35,0-.74.07-1.19.21-.44.14-.86.34-1.26.6-.4.26-.73.57-1,.91-.27.35-.4.73-.4,1.14v7.45l-.19.19h-.62l-.19-.19v-10.87l.19-.19h.52l.19.19.07,1.71c.43-.67.98-1.17,1.66-1.51.68-.34,1.41-.51,2.21-.51.65,0,1.25.07,1.79.22.55.15,1.01.39,1.4.7.39.32.69.72.91,1.22.22.5.33,1.1.33,1.79v7.24l-.19.19Z"/><path class="cls-2" d="m271.77,110.95h-.62l-.21-.19.07-14.54c-1.23,2.45-2.46,4.89-3.69,7.32-1.23,2.43-2.45,4.87-3.69,7.32l-.17.09h-.5l-.14-.09c-1.19-2.42-2.37-4.83-3.55-7.22-1.18-2.39-2.31-4.82-3.4-7.27,0,2.4,0,4.8,0,7.2.01,2.4.02,4.79.04,7.2l-.19.19h-.62l-.21-.19v-16.37l.19-.19h.73l.17.12,7.24,15.32,7.61-15.35.17-.09h.73l.21.19v16.37l-.19.19Z"/><path class="cls-2" d="m275,97h-.95l-.19-.17v-.92l.17-.19h.95l.19.19v.92l-.17.17Zm-.17,13.95h-.62l-.21-.19v-10.87l.19-.19h.62l.19.19v10.87l-.17.19Z"/><path class="cls-2" d="m286.15,110.95h-.62l-.19-.19v-7.24c0-.52-.09-.97-.26-1.35-.17-.38-.42-.7-.72-.96-.31-.26-.67-.45-1.09-.58-.42-.13-.87-.19-1.36-.19-.35,0-.74.07-1.19.21-.44.14-.86.34-1.26.6-.4.26-.73.57-1,.91-.27.35-.4.73-.4,1.14v7.45l-.19.19h-.62l-.19-.19v-10.87l.19-.19h.52l.19.19.07,1.71c.43-.67.98-1.17,1.66-1.51.68-.34,1.41-.51,2.21-.51.65,0,1.25.07,1.79.22.55.15,1.01.39,1.4.7.39.32.69.72.91,1.22.22.5.33,1.1.33,1.79v7.24l-.19.19Z"/><path class="cls-2" d="m297.72,110.95h-.55l-.19-.19-.05-2.16c-.38.76-.91,1.36-1.59,1.81-.68.45-1.45.68-2.3.68s-1.61-.14-2.22-.41c-.61-.28-1.11-.66-1.49-1.16-.39-.5-.67-1.09-.84-1.78-.17-.69-.26-1.44-.26-2.24,0-1.98.46-3.46,1.38-4.44.92-.98,2.37-1.47,4.36-1.47.49,0,.98.02,1.47.05.49.03.98.07,1.47.12v-6.64l.19-.19h.62l.17.19v17.65l-.17.19Zm-2.27-10.45c-.56-.04-1.06-.06-1.48-.06-1.66,0-2.87.44-3.63,1.32-.76.88-1.14,2.12-1.14,3.74,0,.65.06,1.26.2,1.83.13.57.36,1.07.66,1.51.31.44.71.78,1.2,1.03.49.25,1.09.38,1.8.38.66,0,1.24-.14,1.72-.41.48-.28.88-.64,1.19-1.08.31-.44.54-.95.69-1.52.15-.57.22-1.15.22-1.73l.02-4.74c-.41-.13-.9-.21-1.46-.25Z"/></svg>