<svg width="31" height="30" viewBox="0 0 31 30" fill="none" xmlns="http://www.w3.org/2000/svg">
<g clip-path="url(#clip0_329_44)">
<path d="M15.5 30C23.7843 30 30.5 23.2843 30.5 15C30.5 6.71573 23.7843 0 15.5 0C7.21573 0 0.5 6.71573 0.5 15C0.5 23.2843 7.21573 30 15.5 30Z" fill="#3C5A9A"/>
<path d="M19.4881 7H16.7711C15.1587 7 13.3653 7.67811 13.3653 10.0152C13.3732 10.8296 13.3653 11.6095 13.3653 12.4872H11.5V15.4553H13.423V24H16.9567V15.3989H19.289L19.5 12.4788H16.8958C16.8958 12.4788 16.9016 11.1799 16.8958 10.8027C16.8958 9.87908 17.8568 9.93197 17.9146 9.93197C18.3719 9.93197 19.2612 9.9333 19.4894 9.93197V7H19.4881Z" fill="white"/>
</g>
<defs>
<clipPath id="clip0_329_44">
<rect width="30" height="30" fill="white" transform="translate(0.5)"/>
</clipPath>
</defs>
</svg>
